<svg width="30" height="30" viewBox="0 0 30 30" fill="none" xmlns="http://www.w3.org/2000/svg">
<g clip-path="url(#clip0_140_184)">
<path d="M15 0C23.2845 0 30 6.7155 30 15C30 23.2845 23.2845 30 15 30C6.7155 30 0 23.2845 0 15C0 6.7155 6.7155 0 15 0ZM16.182 8.469L10.377 14.4255C10.1896 14.6179 10.0853 14.8762 10.0867 15.1448C10.0881 15.4134 10.1951 15.6706 10.3845 15.861L16.1895 21.7035C16.283 21.8038 16.3957 21.8842 16.5209 21.9401C16.646 21.9959 16.7812 22.0261 16.9182 22.0287C17.0553 22.0313 17.1915 22.0063 17.3187 21.9553C17.4459 21.9042 17.5616 21.8281 17.6588 21.7315C17.7561 21.6348 17.8329 21.5197 17.8847 21.3927C17.9366 21.2658 17.9624 21.1298 17.9606 20.9927C17.9589 20.8557 17.9296 20.7204 17.8745 20.5948C17.8194 20.4693 17.7397 20.3561 17.64 20.262L12.5445 15.132L17.6475 9.897C17.8369 9.70266 17.9413 9.44106 17.9378 9.16974C17.9342 8.89842 17.8231 8.63962 17.6287 8.45025C17.4344 8.26089 17.1728 8.15648 16.9015 8.15999C16.6302 8.16351 16.3714 8.27466 16.182 8.469Z" fill="#71AAEB"/>
</g>
<defs>
<clipPath id="clip0_140_184">
<rect width="30" height="30" fill="white"/>
</clipPath>
</defs>
</svg>
